<svg xmlns="http://www.w3.org/2000/svg" xmlns:xlink="http://www.w3.org/1999/xlink" width="1080" zoomAndPan="magnify" viewBox="0 0 810 809.999993" height="1080" preserveAspectRatio="xMidYMid meet" version="1.0"><defs><clipPath id="f8cd1faeec"><path d="M 72 38.085938 L 392 38.085938 L 392 771.585938 L 72 771.585938 Z M 72 38.085938 " clip-rule="nonzero"/></clipPath><clipPath id="731c34a085"><path d="M 418 38.085938 L 737 38.085938 L 737 771.585938 L 418 771.585938 Z M 418 38.085938 " clip-rule="nonzero"/></clipPath></defs><g clip-path="url(#f8cd1faeec)"><path fill="#003ca5" d="M 326.308594 38.34375 L 213.636719 38.34375 C 197.828125 38.34375 182.480469 43.9375 170.445312 54.074219 C 141.78125 78.054688 91.441406 131.195312 76.316406 217.640625 C 55.441406 336.832031 137.300781 683.457031 187.160156 732.273438 C 216.609375 761.082031 249.96875 771.507812 279.898438 771.507812 C 300.164062 771.507812 318.863281 766.722656 333.691406 759.621094 C 351.046875 751.386719 365.589844 738.863281 376.917969 722.386719 C 386.625 708.222656 391.683594 691.109375 391.554688 672.945312 L 391.554688 103.585938 C 391.546875 67.605469 362.28125 38.34375 326.308594 38.34375 Z M 215.101562 710.90625 L 190.292969 542.023438 C 188.902344 532.589844 183.539062 524.15625 175.574219 518.867188 C 161.152344 509.367188 148.539062 493.5625 142.648438 477.605469 C 126.949219 411.558594 108.296875 320.28125 108.296875 259.382812 C 108.296875 180.453125 165.820312 109.929688 190.566406 83.257812 C 196.355469 76.980469 204.621094 73.378906 213.226562 73.378906 L 329.101562 73.378906 C 344.535156 73.378906 357.09375 85.550781 357.09375 100.5 L 357.09375 456.0625 C 354.230469 475.042969 347.609375 489.847656 336.847656 501.300781 C 330.359375 508.222656 327.011719 516.886719 327.425781 525.6875 L 336.074219 710.265625 C 325.074219 719.609375 313.125 726.625 300.445312 730.9375 C 272.492188 740.527344 234.667969 731.507812 215.101562 710.90625 Z M 197.339844 670.070312 C 184.78125 634 167.617188 577.113281 151.433594 513.246094 C 156.828125 519.152344 162.832031 524.40625 169.152344 528.574219 C 174.363281 532.03125 177.867188 537.554688 178.773438 543.722656 Z M 339.046875 525.140625 C 338.78125 519.507812 341.015625 513.863281 345.328125 509.257812 C 349.894531 504.398438 353.800781 499.03125 357.089844 493.148438 L 357.089844 666.242188 C 357.089844 677.808594 353.527344 688.929688 347.152344 698.25 Z M 339.046875 525.140625 " fill-opacity="1" fill-rule="nonzero"/></g><path fill="#003ca5" d="M 312.949219 423.902344 C 320.277344 421.4375 325.550781 414.535156 325.550781 406.449219 L 325.550781 390.621094 C 325.550781 385.101562 323.011719 379.898438 318.929688 376.449219 C 320.441406 357.242188 320.777344 340.742188 320.777344 330.085938 C 320.777344 316.269531 319.066406 301.132812 315.855469 285.125 C 321.691406 281.96875 325.550781 275.828125 325.550781 268.804688 L 325.550781 253.03125 C 325.550781 243.960938 319.121094 236.265625 310.226562 234.722656 C 307.195312 234.210938 304.203125 233.792969 301.210938 233.367188 C 300.683594 231.914062 300.148438 230.394531 299.640625 229.027344 L 298.796875 226.746094 C 292.59375 210.507812 277.390625 200.015625 260.078125 200.015625 L 223.179688 200.015625 C 206.085938 200.015625 190.554688 210.769531 184.511719 226.734375 C 183.710938 228.816406 182.878906 231.058594 182.039062 233.367188 C 179.035156 233.796875 176.042969 234.21875 173.011719 234.730469 C 164.144531 236.265625 157.707031 243.960938 157.707031 253.03125 L 157.707031 268.804688 C 157.707031 275.839844 161.582031 282 167.414062 285.140625 C 164.195312 301.40625 162.476562 316.550781 162.476562 330.09375 C 162.476562 340.742188 162.820312 357.238281 164.339844 376.460938 C 160.238281 379.921875 157.710938 385.121094 157.710938 390.621094 L 157.710938 406.449219 C 157.710938 414.621094 163.089844 421.582031 170.316406 423.960938 C 182.363281 491.136719 206.964844 526.6875 241.632812 526.6875 C 276.316406 526.6875 300.910156 491.117188 312.949219 423.902344 Z M 241.628906 490.722656 C 226.492188 490.722656 211.195312 463.28125 202.828125 421.820312 C 228.617188 419.289062 254.648438 419.28125 280.421875 421.820312 C 272.054688 463.28125 256.761719 490.722656 241.628906 490.722656 Z M 196.582031 369.117188 C 196.304688 362.976562 196.117188 356.621094 196.117188 349.9375 C 196.117188 327.042969 198.097656 304.46875 201.722656 284.179688 C 204.371094 283.90625 207.144531 283.667969 210.089844 283.4375 L 210.089844 367.835938 C 205.429688 368.195312 200.925781 368.621094 196.582031 369.117188 Z M 273.171875 283.441406 C 276.109375 283.667969 278.886719 283.914062 281.542969 284.1875 C 285.160156 304.457031 287.140625 327.027344 287.140625 349.945312 C 287.140625 356.773438 286.953125 363.039062 286.675781 369.121094 C 282.328125 368.625 277.820312 368.203125 273.179688 367.847656 L 273.179688 283.441406 Z M 169.347656 253.039062 C 169.347656 249.703125 171.773438 246.765625 174.972656 246.210938 C 179.023438 245.523438 183.023438 244.890625 187.132812 244.371094 C 223.300781 239.414062 259.984375 239.402344 296.183594 244.382812 C 300.234375 244.898438 304.234375 245.523438 308.265625 246.207031 C 311.484375 246.765625 313.910156 249.703125 313.910156 253.039062 L 313.910156 268.808594 C 313.910156 272.222656 311.523438 275.097656 308.238281 275.644531 C 308.207031 275.648438 308.179688 275.65625 308.144531 275.660156 C 307.539062 275.769531 306.871094 275.769531 306.089844 275.636719 C 300.058594 274.675781 293.878906 273.84375 287.234375 273.101562 C 281.332031 272.402344 275.132812 271.859375 267.71875 271.382812 C 259.058594 270.824219 250.339844 270.542969 241.621094 270.542969 C 232.90625 270.542969 224.1875 270.824219 215.53125 271.382812 C 208.125 271.855469 201.917969 272.402344 196.046875 273.09375 C 189.34375 273.851562 183.164062 274.675781 177.117188 275.644531 C 176.609375 275.722656 176.136719 275.679688 175.660156 275.644531 C 175.195312 275.515625 174.742188 275.371094 174.234375 275.359375 C 171.417969 274.496094 169.339844 271.878906 169.339844 268.816406 L 169.339844 253.039062 Z M 169.347656 390.621094 C 169.347656 388.046875 170.789062 385.648438 173.09375 384.480469 C 173.671875 384.175781 174.328125 383.957031 174.996094 383.839844 C 180.175781 382.945312 185.660156 382.136719 191.820312 381.371094 C 199.535156 380.34375 207.535156 379.574219 216.28125 379.027344 C 233.101562 377.933594 250.15625 377.933594 266.984375 379.027344 C 275.734375 379.578125 283.730469 380.347656 291.488281 381.378906 C 297.574219 382.136719 303.0625 382.9375 308.214844 383.828125 C 308.933594 383.957031 309.59375 384.183594 310.238281 384.515625 C 312.472656 385.648438 313.917969 388.042969 313.917969 390.621094 L 313.917969 406.449219 C 313.917969 410.050781 311.125 413.050781 307.554688 413.269531 C 307.417969 413.28125 307.269531 413.292969 307.132812 413.316406 C 307.019531 413.335938 306.707031 413.351562 306.089844 413.269531 C 300.078125 412.328125 294.070312 411.507812 288.035156 410.796875 C 272.636719 409.027344 257.136719 408.148438 241.632812 408.148438 C 226.125 408.148438 210.609375 409.027344 195.199219 410.796875 C 189.191406 411.507812 183.179688 412.328125 177.371094 413.246094 C 176.726562 413.316406 176.335938 413.339844 175.707031 413.269531 C 172.140625 413.042969 169.347656 410.046875 169.347656 406.449219 Z M 169.347656 390.621094 " fill-opacity="1" fill-rule="nonzero"/><path fill="#003ca5" d="M 180.09375 212.898438 C 183.976562 205.042969 188.058594 199.070312 191.03125 196.898438 C 194.410156 194.386719 197.515625 193.398438 201.109375 192.25 C 204.910156 191.035156 209.230469 189.660156 214.078125 186.371094 C 220.574219 181.914062 229.238281 166.671875 234.800781 155.917969 L 242.726562 170.699219 C 243.707031 172.519531 245.582031 173.695312 247.65625 173.761719 C 249.601562 174.027344 251.679688 172.800781 252.785156 171.042969 L 261.644531 156.957031 C 264.347656 162.492188 268.691406 169.554688 275.597656 177.425781 C 291.5 195.597656 334.160156 210.699219 335.960938 211.328125 C 337.761719 211.957031 339.722656 211.6875 341.253906 210.582031 C 342.796875 209.488281 343.707031 207.726562 343.707031 205.839844 L 343.707031 117.027344 C 343.707031 101.046875 330.683594 88.050781 314.667969 88.050781 L 220.269531 88.050781 C 207.761719 88.050781 196.355469 94.925781 190.5 106 L 143.996094 194.355469 C 140.660156 200.722656 140.894531 208.195312 144.605469 214.34375 C 148.3125 220.472656 154.796875 224.125 161.949219 224.125 C 169.675781 224.113281 176.621094 219.832031 180.09375 212.898438 Z M 154.5625 208.300781 C 152.953125 205.636719 152.851562 202.515625 154.296875 199.757812 L 200.789062 111.425781 C 204.621094 104.179688 212.082031 99.679688 220.269531 99.679688 L 314.667969 99.679688 C 324.257812 99.679688 332.070312 107.460938 332.070312 117.015625 L 332.070312 197.402344 C 319.371094 192.332031 294.535156 181.394531 284.351562 169.757812 C 270.785156 154.3125 268.8125 143.027344 268.808594 142.96875 C 268.453125 140.550781 266.640625 138.613281 264.257812 138.101562 C 261.851562 137.597656 259.414062 138.636719 258.117188 140.699219 L 248.257812 156.375 L 239.714844 140.460938 C 238.679688 138.527344 236.773438 137.421875 234.433594 137.390625 C 232.234375 137.457031 230.257812 138.742188 229.320312 140.734375 C 223.242188 153.652344 212.453125 173.371094 207.523438 176.746094 C 204.089844 179.066406 201.070312 180.035156 197.570312 181.15625 C 193.566406 182.4375 189.027344 183.886719 184.128906 187.519531 C 179.476562 190.917969 174.613281 197.714844 169.675781 207.707031 C 168.207031 210.648438 165.242188 212.46875 161.953125 212.46875 C 158.859375 212.472656 156.164062 210.957031 154.5625 208.300781 Z M 154.5625 208.300781 " fill-opacity="1" fill-rule="nonzero"/><g clip-path="url(#731c34a085)"><path fill="#003ca5" d="M 733.433594 217.640625 C 718.304688 131.195312 667.96875 78.058594 639.324219 54.085938 C 627.269531 43.9375 611.921875 38.34375 596.117188 38.34375 L 483.445312 38.34375 C 447.464844 38.34375 418.203125 67.605469 418.203125 103.585938 L 418.203125 672.902344 C 418.074219 691.105469 423.132812 708.214844 432.847656 722.386719 C 444.160156 738.855469 458.703125 751.382812 476.046875 759.609375 C 490.886719 766.710938 509.585938 771.5 529.863281 771.5 C 559.792969 771.5 593.152344 761.070312 622.597656 732.269531 C 672.449219 683.457031 754.3125 336.832031 733.433594 217.640625 Z M 452.65625 493.148438 C 455.945312 499.03125 459.851562 504.390625 464.417969 509.253906 C 468.738281 513.863281 470.972656 519.507812 470.703125 525.132812 L 462.589844 698.253906 C 456.21875 688.929688 452.65625 677.808594 452.65625 666.242188 Z M 472.898438 501.289062 C 462.136719 489.84375 455.519531 475.042969 452.652344 456.058594 L 452.652344 100.5 C 452.652344 85.550781 465.203125 73.378906 480.644531 73.378906 L 596.519531 73.378906 C 605.125 73.378906 613.390625 76.980469 619.191406 83.273438 C 643.925781 109.933594 701.449219 180.460938 701.449219 259.386719 C 701.449219 320.289062 682.796875 411.566406 667.09375 477.605469 C 661.207031 493.5625 648.597656 509.367188 634.15625 518.878906 C 626.203125 524.15625 620.84375 532.589844 619.453125 542.03125 L 594.644531 710.910156 C 575.082031 731.519531 537.230469 740.5 509.296875 730.9375 C 496.625 726.625 484.675781 719.609375 473.679688 710.265625 L 482.324219 525.6875 C 482.746094 516.882812 479.394531 508.214844 472.898438 501.289062 Z M 630.972656 543.71875 C 631.878906 537.546875 635.386719 532.023438 640.574219 528.578125 C 646.90625 524.414062 652.917969 519.152344 658.320312 513.238281 C 642.132812 577.101562 624.972656 633.988281 612.410156 670.0625 Z M 630.972656 543.71875 " fill-opacity="1" fill-rule="nonzero"/></g><path fill="#003ca5" d="M 636.722656 234.730469 C 633.6875 234.21875 630.703125 233.796875 627.710938 233.375 C 626.875 231.070312 626.042969 228.839844 625.246094 226.773438 C 619.199219 210.773438 603.660156 200.019531 586.566406 200.019531 L 549.667969 200.019531 C 532.347656 200.019531 517.152344 210.511719 510.917969 226.824219 L 510.105469 229.027344 C 509.597656 230.394531 509.058594 231.90625 508.53125 233.367188 C 505.53125 233.796875 502.53125 234.21875 499.5 234.734375 C 490.632812 236.273438 484.195312 243.964844 484.195312 253.039062 L 484.195312 268.808594 C 484.195312 275.835938 488.054688 281.980469 493.890625 285.136719 C 490.675781 301.140625 488.964844 316.277344 488.964844 330.097656 C 488.964844 340.761719 489.304688 357.261719 490.816406 376.472656 C 486.714844 379.933594 484.1875 385.132812 484.1875 390.632812 L 484.1875 406.460938 C 484.1875 414.546875 489.460938 421.449219 496.789062 423.914062 C 508.824219 491.128906 533.425781 526.699219 568.109375 526.699219 C 602.792969 526.699219 627.398438 491.125 639.4375 423.902344 C 646.765625 421.429688 652.035156 414.539062 652.035156 406.460938 L 652.035156 390.632812 C 652.035156 385.113281 649.488281 379.90625 645.40625 376.460938 C 646.917969 357.242188 647.265625 340.75 647.265625 330.105469 C 647.265625 316.5625 645.550781 301.414062 642.332031 285.148438 C 648.175781 281.992188 652.039062 275.839844 652.039062 268.820312 L 652.039062 253.050781 C 652.042969 243.964844 645.609375 236.273438 636.722656 234.730469 Z M 523.078125 369.117188 C 522.796875 363.035156 522.609375 356.765625 522.609375 349.9375 C 522.609375 327.019531 524.589844 304.453125 528.210938 284.179688 C 530.851562 283.90625 533.632812 283.667969 536.578125 283.4375 L 536.578125 367.835938 C 531.921875 368.195312 527.417969 368.621094 523.078125 369.117188 Z M 599.667969 283.441406 C 602.597656 283.667969 605.382812 283.914062 608.035156 284.1875 C 611.660156 304.46875 613.640625 327.042969 613.640625 349.945312 C 613.640625 356.625 613.453125 362.980469 613.175781 369.121094 C 608.828125 368.625 604.320312 368.203125 599.671875 367.847656 L 599.671875 283.441406 Z M 495.839844 253.039062 C 495.839844 249.703125 498.265625 246.765625 501.46875 246.210938 C 505.519531 245.523438 509.515625 244.890625 513.625 244.371094 C 531.695312 241.894531 549.902344 240.652344 568.105469 240.652344 C 586.332031 240.652344 604.566406 241.894531 622.679688 244.382812 C 626.726562 244.898438 630.726562 245.523438 634.761719 246.207031 C 637.976562 246.765625 640.40625 249.703125 640.40625 253.039062 L 640.40625 268.808594 C 640.40625 271.871094 638.328125 274.492188 635.453125 275.363281 C 634.953125 275.382812 634.492188 275.515625 634.03125 275.648438 C 633.574219 275.679688 633.125 275.722656 632.589844 275.632812 C 626.582031 274.675781 620.402344 273.84375 613.734375 273.09375 C 607.824219 272.394531 601.628906 271.847656 594.21875 271.378906 C 576.894531 270.265625 559.339844 270.265625 542.027344 271.378906 C 534.613281 271.855469 528.40625 272.394531 522.542969 273.089844 C 515.859375 273.839844 509.679688 274.664062 503.609375 275.636719 C 502.871094 275.757812 502.21875 275.757812 501.59375 275.65625 C 501.5625 275.648438 501.53125 275.644531 501.503906 275.636719 C 498.21875 275.089844 495.828125 272.214844 495.828125 268.804688 L 495.828125 253.039062 Z M 568.121094 490.722656 C 552.992188 490.722656 537.695312 463.28125 529.328125 421.820312 C 555.113281 419.289062 581.152344 419.28125 606.921875 421.820312 C 598.554688 463.28125 583.261719 490.722656 568.121094 490.722656 Z M 640.40625 406.449219 C 640.40625 410.046875 637.617188 413.042969 633.675781 413.304688 C 633.390625 413.351562 633.015625 413.324219 632.582031 413.269531 C 626.578125 412.328125 620.566406 411.507812 614.535156 410.796875 C 599.136719 409.027344 583.632812 408.148438 568.128906 408.148438 C 552.617188 408.148438 537.109375 409.027344 521.699219 410.796875 C 515.6875 411.507812 509.679688 412.328125 503.867188 413.246094 C 503.015625 413.351562 502.738281 413.316406 502.625 413.316406 C 502.484375 413.292969 502.339844 413.28125 502.199219 413.269531 C 498.640625 413.050781 495.839844 410.050781 495.839844 406.449219 L 495.839844 390.621094 C 495.839844 388.046875 497.285156 385.648438 499.585938 384.480469 C 499.585938 384.480469 499.585938 384.480469 499.59375 384.480469 C 499.59375 384.480469 499.597656 384.480469 499.597656 384.480469 C 500.167969 384.183594 500.828125 383.960938 501.492188 383.839844 C 506.695312 382.9375 512.183594 382.136719 518.320312 381.371094 C 526.027344 380.34375 534.023438 379.574219 542.777344 379.027344 C 559.597656 377.933594 576.648438 377.933594 593.480469 379.027344 C 602.222656 379.578125 610.222656 380.347656 617.988281 381.378906 C 624.097656 382.136719 629.582031 382.945312 634.707031 383.828125 C 635.429688 383.957031 636.085938 384.183594 636.734375 384.515625 C 638.96875 385.648438 640.410156 388.042969 640.410156 390.621094 L 640.410156 406.449219 Z M 640.40625 406.449219 " fill-opacity="1" fill-rule="nonzero"/><path fill="#003ca5" d="M 534.140625 177.4375 C 541.058594 169.558594 545.40625 162.5 548.109375 156.957031 L 556.964844 171.042969 C 558.070312 172.800781 560.179688 174.035156 562.09375 173.761719 C 564.164062 173.691406 566.042969 172.519531 567.023438 170.699219 L 574.949219 155.917969 C 580.507812 166.679688 589.179688 181.925781 595.695312 186.390625 C 600.515625 189.660156 604.828125 191.035156 608.632812 192.25 C 612.230469 193.398438 615.332031 194.386719 618.75 196.921875 C 621.6875 199.070312 625.769531 205.046875 629.667969 212.929688 C 633.125 219.832031 640.066406 224.113281 647.789062 224.113281 C 654.941406 224.113281 661.433594 220.460938 665.132812 214.332031 C 668.851562 208.183594 669.085938 200.710938 665.738281 194.332031 L 619.234375 105.976562 C 613.382812 94.914062 601.976562 88.039062 589.46875 88.039062 L 495.070312 88.039062 C 479.054688 88.039062 466.03125 101.035156 466.03125 117.015625 L 466.03125 205.839844 C 466.03125 207.726562 466.945312 209.496094 468.488281 210.582031 C 470.023438 211.675781 471.988281 211.945312 473.777344 211.328125 C 475.59375 210.699219 518.246094 195.601562 534.140625 177.4375 Z M 477.683594 197.402344 L 477.683594 117.027344 C 477.683594 107.464844 485.492188 99.691406 495.082031 99.691406 L 589.480469 99.691406 C 597.664062 99.691406 605.125 104.183594 608.953125 111.425781 L 655.449219 199.757812 C 656.898438 202.527344 656.800781 205.648438 655.1875 208.3125 C 653.585938 210.96875 650.890625 212.484375 647.796875 212.484375 C 644.507812 212.484375 641.546875 210.664062 640.089844 207.753906 C 635.132812 197.734375 630.265625 190.933594 625.65625 187.558594 C 620.722656 183.90625 616.183594 182.457031 612.183594 181.175781 C 608.6875 180.058594 605.667969 179.089844 602.261719 176.78125 C 597.304688 173.386719 586.511719 153.664062 580.4375 140.75 C 579.5 138.761719 577.523438 137.472656 575.320312 137.410156 C 575.269531 137.410156 575.21875 137.410156 575.171875 137.410156 C 573.027344 137.410156 571.054688 138.585938 570.042969 140.476562 L 561.5 156.394531 L 551.640625 140.714844 C 550.347656 138.660156 547.914062 137.652344 545.554688 138.136719 C 543.183594 138.621094 541.351562 140.546875 540.960938 142.933594 C 540.945312 143.042969 538.972656 154.324219 525.394531 169.78125 C 515.214844 181.394531 490.375 192.332031 477.683594 197.402344 Z M 477.683594 197.402344 " fill-opacity="1" fill-rule="nonzero"/></svg>