<svg xmlns="http://www.w3.org/2000/svg" xmlns:xlink="http://www.w3.org/1999/xlink" width="1080" zoomAndPan="magnify" viewBox="0 0 810 809.999993" height="1080" preserveAspectRatio="xMidYMid meet" version="1.0"><defs><clipPath id="b423a392a5"><path d="M 286 62.898438 L 401.800781 62.898438 L 401.800781 754.433594 L 286 754.433594 Z M 286 62.898438 " clip-rule="nonzero"/></clipPath><clipPath id="ede8e98d2a"><path d="M 538.203125 253 L 577.84375 253 L 577.84375 751.300781 L 538.203125 751.300781 Z M 538.203125 253 " clip-rule="nonzero"/></clipPath><clipPath id="22f9a78f65"><path d="M 416 62.898438 L 531.808594 62.898438 L 531.808594 754.433594 L 416 754.433594 Z M 416 62.898438 " clip-rule="nonzero"/></clipPath></defs><path fill="#003ca5" d="M 274.003906 714.703125 C 271.503906 714.703125 269.003906 714.6875 266.503906 714.679688 C 266.503906 583.703125 266.503906 452.722656 266.503906 321.746094 C 269.636719 321.746094 272.773438 321.746094 275.917969 321.746094 C 275.917969 320.808594 275.917969 319.871094 275.917969 318.929688 C 275.917969 314.527344 274.148438 312.664062 269.75 312.417969 C 269.75 291.746094 286.554688 269.230469 259.324219 253.09375 C 232.105469 269.230469 248.910156 291.746094 248.910156 312.417969 C 244.511719 312.664062 242.734375 314.527344 242.734375 318.929688 C 242.734375 319.871094 242.734375 320.808594 242.734375 321.746094 C 245.878906 321.746094 249.015625 321.746094 252.152344 321.746094 C 252.152344 452.714844 252.152344 583.683594 252.152344 714.652344 C 249.679688 714.644531 247.199219 714.644531 244.714844 714.625 C 242.113281 714.625 239.828125 714.644531 239.828125 717.960938 C 239.828125 718.546875 239.828125 719.132812 239.828125 719.722656 C 239.828125 723.046875 242.113281 723.054688 244.714844 723.054688 C 247.199219 723.054688 249.679688 723.054688 252.152344 723.054688 C 252.152344 730.074219 252.152344 737.09375 252.152344 744.109375 C 252.152344 749.171875 254.253906 751.273438 259.324219 751.273438 C 264.40625 751.273438 266.503906 749.171875 266.503906 744.109375 C 266.503906 737.09375 266.503906 730.074219 266.503906 723.054688 C 268.980469 723.054688 271.457031 723.054688 273.9375 723.054688 C 276.53125 723.054688 278.824219 723.046875 278.824219 719.722656 C 278.824219 719.160156 278.824219 718.601562 278.824219 718.027344 C 278.824219 714.765625 276.574219 714.726562 274.003906 714.703125 " fill-opacity="1" fill-rule="nonzero"/><g clip-path="url(#b423a392a5)"><path fill="#003ca5" d="M 361.222656 389.191406 C 360.332031 390.527344 358.984375 391.871094 357.875 391.644531 C 356.753906 391.644531 355.640625 390.527344 354.523438 389.636719 C 353.410156 388.292969 352.296875 386.957031 350.953125 386.066406 C 349.394531 384.730469 347.160156 384.054688 344.933594 383.617188 C 344.253906 383.386719 343.363281 383.386719 342.691406 383.617188 C 340.457031 384.054688 338.230469 384.730469 336.449219 386.066406 C 335.328125 386.957031 334.214844 388.292969 332.878906 389.636719 C 331.980469 390.527344 330.867188 391.644531 329.75 391.644531 C 328.640625 391.871094 327.296875 390.527344 326.40625 389.191406 C 325.734375 388.082031 325.511719 386.957031 325.511719 385.621094 C 325.511719 384.285156 325.734375 382.941406 326.179688 381.605469 C 326.851562 379.8125 327.742188 378.257812 328.859375 376.695312 C 330.640625 374.679688 332.65625 372.679688 333.546875 370.445312 C 334.214844 367.992188 333.769531 365.089844 333.992188 362.183594 C 334.214844 359.285156 335.328125 356.605469 337.339844 354.375 C 339.121094 352.371094 341.355469 350.578125 343.808594 349.464844 C 346.269531 350.578125 348.496094 352.371094 350.285156 354.375 C 352.074219 356.605469 353.410156 359.285156 353.632812 362.183594 C 353.855469 365.089844 353.410156 367.992188 354.078125 370.445312 C 354.96875 372.679688 356.976562 374.679688 358.765625 376.695312 C 359.875 378.257812 360.777344 379.8125 361.445312 381.605469 C 361.890625 382.941406 362.113281 384.285156 362.113281 385.621094 C 362.113281 386.957031 361.890625 388.082031 361.222656 389.191406 Z M 349.839844 535.824219 L 338.011719 535.824219 C 335.328125 522.878906 332.65625 509.710938 329.976562 496.769531 C 338.675781 483.597656 349.171875 483.597656 357.875 496.769531 C 355.195312 509.710938 352.519531 522.878906 349.839844 535.824219 Z M 391.796875 506.140625 C 390.90625 503.683594 389.570312 503.015625 387.109375 503.015625 L 370.371094 503.015625 L 369.703125 486.945312 C 366.574219 422.222656 366.574219 357.722656 369.257812 293.003906 C 372.375 228.496094 375.722656 164.222656 378.851562 99.945312 C 375.503906 77.632812 365.90625 67.363281 344.039062 62.894531 C 321.9375 67.363281 312.347656 77.632812 308.996094 99.945312 C 312.121094 164.222656 315.464844 228.496094 318.589844 293.003906 C 321.492188 357.722656 321.273438 422.222656 318.144531 486.945312 C 317.921875 492.300781 317.699219 497.660156 317.699219 503.015625 L 300.738281 503.015625 C 298.28125 503.015625 296.945312 503.683594 296.054688 506.140625 C 292.929688 514.625 289.804688 523.324219 286.453125 532.027344 C 284.214844 541.84375 295.601562 546.539062 300.960938 537.835938 C 303.636719 530.46875 306.316406 523.105469 308.996094 515.960938 L 317.253906 515.960938 C 315.242188 586.933594 313.238281 657.902344 311.003906 728.878906 L 311.003906 744.054688 C 334.882812 757.894531 352.964844 757.894531 376.847656 744.054688 L 376.847656 728.878906 C 374.832031 657.902344 372.597656 586.933594 370.59375 515.960938 L 378.851562 515.960938 C 381.53125 523.105469 384.207031 530.46875 386.886719 537.835938 C 392.242188 546.539062 403.625 541.84375 401.394531 532.027344 C 398.046875 523.324219 394.921875 514.625 391.796875 506.140625 " fill-opacity="1" fill-rule="nonzero"/></g><g clip-path="url(#ede8e98d2a)"><path fill="#003ca5" d="M 572.945312 714.625 C 570.464844 714.644531 567.992188 714.644531 565.515625 714.652344 C 565.515625 583.683594 565.515625 452.714844 565.515625 321.746094 C 568.652344 321.746094 571.789062 321.746094 574.929688 321.746094 C 574.929688 320.808594 574.929688 319.871094 574.929688 318.929688 C 574.929688 314.527344 573.152344 312.664062 568.757812 312.417969 C 568.757812 291.746094 585.5625 269.230469 558.339844 253.09375 C 531.109375 269.230469 547.914062 291.746094 547.914062 312.417969 C 543.519531 312.664062 541.75 314.527344 541.75 318.929688 C 541.75 319.871094 541.75 320.808594 541.75 321.746094 C 544.894531 321.746094 548.027344 321.746094 551.15625 321.746094 C 551.15625 452.722656 551.15625 583.703125 551.15625 714.679688 C 548.664062 714.6875 546.171875 714.703125 543.65625 714.703125 C 541.089844 714.726562 538.839844 714.765625 538.839844 718.027344 C 538.839844 718.601562 538.839844 719.160156 538.839844 719.722656 C 538.839844 723.046875 541.132812 723.054688 543.730469 723.054688 C 546.203125 723.054688 548.683594 723.054688 551.15625 723.054688 C 551.15625 730.074219 551.15625 737.09375 551.15625 744.109375 C 551.15625 749.171875 553.269531 751.273438 558.339844 751.273438 C 563.414062 751.273438 565.515625 749.171875 565.515625 744.109375 C 565.515625 737.09375 565.515625 730.074219 565.515625 723.054688 C 567.992188 723.054688 570.464844 723.054688 572.945312 723.054688 C 575.554688 723.054688 577.847656 723.046875 577.847656 719.722656 C 577.847656 719.132812 577.847656 718.546875 577.847656 717.960938 C 577.847656 714.644531 575.554688 714.625 572.945312 714.625 " fill-opacity="1" fill-rule="nonzero"/></g><g clip-path="url(#22f9a78f65)"><path fill="#003ca5" d="M 491.117188 389.191406 C 490.445312 390.527344 489.101562 391.871094 487.988281 391.644531 C 486.648438 391.644531 485.53125 390.527344 484.640625 389.636719 C 483.523438 388.292969 482.410156 386.957031 481.066406 386.066406 C 479.507812 384.730469 477.269531 384.054688 475.042969 383.617188 C 474.152344 383.386719 473.488281 383.386719 472.589844 383.617188 C 470.582031 384.054688 468.347656 384.730469 466.566406 386.066406 C 465.226562 386.957031 464.328125 388.292969 462.992188 389.636719 C 462.101562 390.527344 460.976562 391.644531 459.867188 391.644531 C 458.53125 391.871094 457.1875 390.527344 456.515625 389.191406 C 455.851562 388.082031 455.625 386.957031 455.625 385.621094 C 455.625 384.285156 455.851562 382.941406 456.296875 381.605469 C 456.960938 379.8125 457.859375 378.257812 458.976562 376.695312 C 460.53125 374.679688 462.769531 372.679688 463.4375 370.445312 C 464.328125 367.992188 463.664062 365.089844 463.882812 362.183594 C 464.328125 359.285156 465.445312 356.605469 467.230469 354.375 C 469.015625 352.371094 471.472656 350.578125 473.933594 349.464844 C 476.378906 350.578125 478.617188 352.371094 480.398438 354.375 C 482.1875 356.605469 483.523438 359.285156 483.746094 362.183594 C 483.96875 365.089844 483.300781 367.992188 484.195312 370.445312 C 485.085938 372.679688 487.09375 374.679688 488.65625 376.695312 C 490 378.257812 490.890625 379.8125 491.5625 381.605469 C 492.007812 382.941406 492.226562 384.285156 492.226562 385.621094 C 492.226562 386.957031 492.007812 388.082031 491.117188 389.191406 Z M 479.730469 535.824219 L 467.902344 535.824219 C 465.226562 522.878906 462.546875 509.710938 459.867188 496.769531 C 468.570312 483.597656 479.0625 483.597656 487.765625 496.769531 C 485.085938 509.710938 482.410156 522.878906 479.730469 535.824219 Z M 517 503.015625 L 500.039062 503.015625 C 499.816406 497.660156 499.816406 492.300781 499.59375 486.945312 C 496.46875 422.222656 496.246094 357.722656 498.925781 293.003906 C 502.265625 228.496094 505.394531 164.222656 508.746094 99.945312 C 505.394531 77.632812 495.796875 67.363281 473.707031 62.894531 C 451.609375 67.363281 442.011719 77.632812 438.886719 99.945312 C 442.011719 164.222656 445.136719 228.496094 448.480469 293.003906 C 451.164062 357.722656 450.941406 422.222656 447.816406 486.945312 C 447.816406 492.300781 447.589844 497.660156 447.371094 503.015625 L 430.40625 503.015625 C 427.953125 503.015625 426.835938 503.683594 425.945312 506.140625 C 422.820312 514.625 419.46875 523.324219 416.34375 532.027344 C 414.117188 541.84375 425.5 546.539062 430.851562 537.835938 C 433.535156 530.46875 436.207031 523.105469 438.886719 515.960938 L 446.925781 515.960938 C 444.910156 586.933594 442.902344 657.902344 440.894531 728.878906 L 440.894531 744.054688 C 464.554688 757.894531 482.855469 757.894531 506.511719 744.054688 L 506.511719 728.878906 C 504.503906 657.902344 502.496094 586.933594 500.484375 515.960938 L 508.519531 515.960938 C 511.199219 523.105469 513.882812 530.46875 516.777344 537.835938 C 522.140625 546.539062 533.292969 541.84375 531.066406 532.027344 C 527.9375 523.324219 524.8125 514.625 521.460938 506.140625 C 520.796875 503.683594 519.460938 503.015625 517 503.015625 " fill-opacity="1" fill-rule="nonzero"/></g></svg>