<svg xmlns="http://www.w3.org/2000/svg" xmlns:xlink="http://www.w3.org/1999/xlink" width="1080" zoomAndPan="magnify" viewBox="0 0 810 809.999993" height="1080" preserveAspectRatio="xMidYMid meet" version="1.0"><defs><clipPath id="4abef0de32"><path d="M 48.375 252.339844 L 761.625 252.339844 L 761.625 557.691406 L 48.375 557.691406 Z M 48.375 252.339844 " clip-rule="nonzero"/></clipPath></defs><g clip-path="url(#4abef0de32)"><path fill="#003ca5" d="M 758.4375 476.410156 C 758.4375 476.410156 762.460938 470.65625 759.632812 465.355469 C 756.792969 460.058594 751.222656 459.785156 748.851562 459.605469 C 746.472656 459.417969 729.9375 457.316406 728.476562 458.140625 C 727.011719 458.964844 723.265625 458.871094 721.71875 467.277344 C 720.160156 475.679688 718.605469 486.371094 716.410156 489.386719 C 714.222656 492.398438 698.601562 507.75 693.394531 511.585938 L 692.117188 511.40625 C 692.117188 511.40625 701.890625 501.535156 706.273438 497.242188 C 710.660156 492.949219 713.671875 489.019531 711.210938 490.296875 C 708.742188 491.578125 707.097656 492.3125 708.648438 490.664062 C 710.203125 489.019531 713.21875 480.066406 708.375 475.957031 C 703.535156 471.84375 699.238281 471.84375 690.558594 470.75 C 681.882812 469.652344 670.460938 466.273438 667.996094 477.328125 C 665.53125 488.382812 663.792969 498.246094 660.683594 503.453125 C 657.578125 508.660156 653.742188 510.945312 653.742188 510.945312 C 653.742188 510.945312 641.503906 511.585938 637.667969 512.042969 C 637.667969 512.042969 637.574219 512.132812 637.574219 511.492188 C 637.574219 510.855469 637.394531 510.671875 637.394531 510.394531 C 637.394531 510.121094 636.203125 509.941406 636.476562 509.117188 C 636.75 508.292969 637.9375 508.207031 636.660156 507.566406 C 635.378906 506.925781 633.09375 494.5 633.09375 494.5 C 633.09375 494.5 632.425781 491.976562 632.941406 492.644531 C 632.941406 492.644531 642.050781 485.089844 645.519531 481.164062 C 648.992188 477.234375 651.1875 473.945312 653.285156 472.207031 C 655.390625 470.472656 659.738281 468.28125 659.617188 463.40625 C 659.617188 463.40625 666.746094 455.550781 667.171875 454.519531 C 667.597656 453.480469 666.503906 452.503906 667.171875 450.984375 C 667.84375 449.460938 669.304688 446.476562 669.972656 446.113281 C 670.640625 445.746094 671.316406 444.648438 671.316406 443.429688 C 671.316406 442.214844 670.582031 439.105469 671.988281 439.105469 C 673.386719 439.105469 691.714844 439.472656 691.714844 439.472656 C 691.714844 439.472656 693.730469 439.472656 695.308594 437.21875 C 696.898438 434.964844 693.304688 431.800781 691.535156 430.824219 C 689.769531 429.851562 677.589844 425.160156 673.6875 424.25 C 673.6875 424.25 649.023438 405.003906 623.015625 391.664062 C 597.007812 378.324219 566.496094 364.132812 559.550781 361.757812 C 559.550781 361.757812 560.894531 358.289062 559.003906 354.449219 C 557.117188 350.613281 539.820312 321.191406 525.140625 304.507812 C 525.140625 304.507812 524.101562 300.847656 515.757812 294.636719 C 507.417969 288.425781 501.871094 290.191406 508.941406 297.011719 C 508.941406 297.011719 492.371094 290.375 483.113281 288.609375 C 473.855469 286.839844 477.574219 292.9375 479.523438 294.886719 C 481.472656 296.832031 488.839844 303.472656 480.742188 303.289062 C 472.640625 303.105469 461.308594 303.410156 457.902344 303.773438 C 457.902344 303.773438 456.5625 299.027344 454.429688 296.101562 C 454.429688 296.101562 454.855469 291.59375 456.503906 291.105469 C 458.140625 290.621094 457.65625 291.652344 458.140625 290.621094 C 458.632812 289.585938 458.871094 290.132812 458.871094 290.921875 C 458.871094 291.714844 460.277344 293.238281 460.277344 293.238281 L 461.617188 293.605469 C 461.617188 293.605469 460.765625 295.734375 461.859375 295.675781 C 462.957031 295.613281 463.929688 294.636719 464.539062 295.246094 C 465.148438 295.855469 466.058594 293.117188 466.730469 293.117188 C 467.398438 293.117188 468.617188 293.300781 469.046875 292.996094 C 469.472656 292.691406 469.78125 293.910156 470.390625 293.300781 C 470.992188 292.691406 471.601562 291.410156 471.789062 291.410156 C 471.96875 291.410156 474.34375 293.664062 474.890625 292.9375 C 475.441406 292.203125 475.503906 291.105469 474.285156 290.316406 C 473.066406 289.523438 470.324219 287.636719 469.894531 287.878906 C 469.472656 288.125 468.863281 287.695312 468.984375 287.515625 C 469.105469 287.328125 468.316406 285.929688 468.316406 285.929688 L 470.144531 282.945312 L 470.144531 282.578125 L 472.277344 279.230469 L 466.121094 274.96875 L 464.597656 275.210938 L 463.992188 276 C 463.992188 276 463.441406 275.941406 463.441406 275.210938 C 463.441406 274.480469 460.945312 272.953125 460.519531 272.835938 C 460.097656 272.710938 460.636719 273.019531 460.699219 272.105469 C 460.765625 271.1875 459.546875 269.96875 457.714844 269.425781 C 455.894531 268.878906 456.316406 269.367188 455.585938 269.730469 C 454.855469 270.09375 453.878906 269.058594 453.089844 269.546875 C 452.300781 270.035156 450.652344 272.105469 449.617188 272.105469 C 449.082031 272.105469 448.246094 272.203125 447.574219 272.296875 C 446.488281 271.050781 443.925781 268.023438 441.988281 265 C 439.109375 260.519531 430.722656 253.496094 423.085938 252.503906 C 419.125 251.992188 416.59375 252.617188 415.34375 254.410156 C 414.605469 255.480469 414.0625 257.40625 415.695312 260.507812 C 416.667969 262.34375 418.523438 265.191406 420.070312 267.472656 C 419.292969 267.914062 418.386719 268.511719 417.945312 268.511719 C 417.339844 268.511719 414.292969 268.570312 411.121094 268.816406 C 407.957031 269.058594 407.046875 269.847656 404.542969 269.730469 C 402.046875 269.609375 396.992188 267.414062 393.828125 270.398438 C 390.660156 273.382812 387.550781 279.898438 386.640625 281.117188 C 385.730469 282.335938 386.089844 283.125 387.25 284.101562 C 388.40625 285.074219 391.144531 286.539062 392.300781 284.894531 C 393.460938 283.253906 396.203125 275.515625 398.757812 275.878906 C 401.316406 276.246094 408.324219 278.195312 408.992188 278.441406 C 409.660156 278.683594 412.40625 280.386719 412.40625 280.386719 C 412.40625 280.386719 412.886719 283.863281 415.144531 284.710938 C 417.398438 285.5625 418.859375 284.464844 418.859375 284.464844 L 419.039062 285.503906 L 419.527344 285.625 L 419.773438 284.773438 C 419.773438 284.773438 420.566406 284.652344 421.171875 284.652344 C 421.78125 284.652344 421.722656 285.625 421.722656 285.625 L 422.878906 286.171875 C 422.878906 286.171875 423.121094 285.261719 423.300781 285.199219 C 423.488281 285.140625 424.398438 285.261719 425.5 285.382812 C 426.59375 285.503906 430.308594 287.515625 430.308594 287.515625 C 430.308594 287.515625 431.347656 295.125 432.441406 298.597656 C 433.535156 302.066406 434.757812 307.507812 434.757812 307.507812 C 434.757812 307.507812 430.226562 312.546875 437.332031 318.328125 L 440.417969 331.125 L 437.332031 333.921875 L 422.210938 334.777344 L 422.269531 335.75 L 421.78125 335.808594 L 421.664062 334.960938 L 419.835938 334.839844 C 419.835938 334.839844 414.835938 333.011719 410.390625 332.824219 C 410.390625 332.824219 409.175781 333.621094 407.410156 333.070312 C 407.410156 333.070312 398.519531 334.777344 397.664062 336.90625 L 397.84375 337.761719 C 397.84375 337.761719 385.542969 338.671875 371.714844 357.3125 C 371.714844 357.3125 367.574219 357.980469 362.519531 357.003906 C 357.464844 356.03125 314.527344 349.816406 303.320312 347.6875 C 292.117188 345.554688 284.257812 343.242188 277.070312 340.5625 C 269.882812 337.882812 253.011719 336.117188 248.75 336.117188 C 244.484375 336.117188 223.53125 339.890625 207.269531 340.199219 C 191.011719 340.5 185.53125 342.753906 183.886719 343.667969 C 182.238281 344.582031 181.75 346.289062 182.910156 349.757812 C 184.066406 353.230469 185.894531 359.75 184.734375 362.734375 C 184.734375 362.734375 178.765625 358.898438 174.75 358.832031 C 170.726562 358.773438 164.578125 357.738281 161.410156 358.957031 C 161.410156 358.957031 147.464844 349.207031 128.15625 343.304688 C 108.847656 337.394531 100.316406 338.550781 95.691406 338.492188 C 91.0625 338.433594 89.234375 338.3125 86.796875 339.710938 C 84.363281 341.109375 83.511719 341.476562 80.648438 341.90625 C 77.785156 342.328125 76.386719 342.449219 76.992188 346.773438 C 77.601562 351.101562 78.453125 355.238281 78.453125 359.75 C 78.453125 364.253906 78.234375 366.9375 76.855469 366.996094 C 75.46875 367.054688 70.292969 366.507812 69.195312 367.117188 C 68.101562 367.726562 66.210938 368.273438 65.484375 370.527344 C 65.484375 370.527344 57.015625 370.042969 54.582031 370.890625 C 52.144531 371.746094 51.476562 374.546875 53.730469 376.375 C 55.980469 378.199219 55.980469 378.21875 55.980469 378.21875 L 55.917969 384.71875 C 55.917969 384.71875 55.980469 387.339844 58.050781 388.25 C 58.050781 388.25 55.070312 389.652344 54.152344 398.546875 C 53.242188 407.4375 48.730469 437.339844 48.730469 437.339844 C 48.730469 437.339844 47.273438 444.226562 50.257812 445.746094 C 53.242188 447.265625 61.402344 446.292969 66.03125 446.046875 C 70.65625 445.808594 94.414062 442.578125 98.066406 441.664062 C 101.722656 440.753906 104.339844 438.988281 105.738281 432.347656 C 107.144531 425.707031 111.21875 404.875 111.21875 404.875 C 111.21875 404.875 148.742188 419.496094 154.34375 421.503906 C 159.949219 423.515625 184.613281 432.410156 190.886719 433.136719 L 192.960938 436.304688 C 192.960938 436.304688 187.292969 434.542969 188.449219 437.527344 C 189.609375 440.507812 189.609375 440.507812 189.609375 440.507812 L 189.058594 440.566406 L 188.878906 441.242188 C 188.878906 441.242188 187.292969 440.566406 187.113281 440.875 C 186.929688 441.175781 188.328125 443.308594 187.597656 443.371094 C 186.871094 443.429688 185.894531 442.339844 186.320312 443.617188 C 186.75 444.894531 188.085938 446.234375 187.050781 446.476562 C 186.015625 446.722656 185.34375 446.292969 185.285156 446.84375 C 185.222656 447.390625 184.554688 447.574219 183.457031 447.332031 C 182.359375 447.085938 180.902344 445.199219 180.292969 445.320312 C 179.683594 445.445312 179.011719 445.929688 178.828125 446.535156 C 178.644531 447.144531 178.277344 447.878906 177.675781 448 C 177.066406 448.121094 176.269531 448.121094 174.871094 445.929688 C 173.472656 443.738281 172.433594 441.117188 171.457031 441.175781 C 170.488281 441.242188 168.535156 441.363281 168.660156 441.910156 C 168.78125 442.460938 168.59375 443.25 168.109375 442.882812 C 167.621094 442.519531 166.527344 441.542969 165.609375 441.730469 C 164.699219 441.910156 163.96875 442.03125 164.578125 442.699219 C 165.1875 443.371094 166.585938 444.769531 165.429688 444.226562 C 164.269531 443.675781 162.570312 442.761719 162.140625 443.1875 C 161.714844 443.617188 160.496094 445.078125 160.554688 445.625 C 160.617188 446.171875 160.253906 446.355469 159.644531 446.355469 C 159.035156 446.355469 157.269531 445.6875 157.511719 446.78125 C 157.757812 447.878906 158.242188 449.039062 157.023438 448.304688 C 155.804688 447.574219 154.222656 447.695312 154.285156 448.363281 C 154.34375 449.039062 155.316406 451.777344 155.382812 452.507812 C 155.441406 453.234375 154.707031 452.632812 154.285156 452.144531 C 153.855469 451.65625 152.699219 451.46875 152.398438 451.46875 C 152.089844 451.46875 151.789062 451.898438 151.789062 452.203125 C 151.789062 452.507812 151.667969 452.691406 151.359375 452.875 C 151.058594 453.054688 150.933594 453.722656 150.140625 453.84375 C 149.351562 453.96875 148.742188 454.273438 148.742188 454.699219 C 148.742188 455.128906 147.464844 455.859375 146.667969 455.25 C 145.878906 454.640625 145.023438 450.925781 143.746094 450.316406 C 142.46875 449.707031 141.128906 449.828125 141.128906 449.828125 C 141.128906 449.828125 140.945312 449.769531 139.96875 449.097656 C 138.992188 448.429688 137.902344 447.941406 137.351562 447.820312 C 136.804688 447.695312 136.007812 447.265625 135.644531 447.332031 C 135.277344 447.390625 134.0625 447.332031 134.246094 448.242188 C 134.429688 449.160156 134.671875 449.21875 133.820312 449.160156 C 132.96875 449.097656 132.480469 448.488281 132.359375 449.28125 C 132.234375 450.070312 132.539062 450.25 131.683594 450.316406 C 130.835938 450.375 130.773438 451.46875 131.082031 452.8125 C 131.382812 454.152344 132.84375 456.40625 131.992188 456.648438 C 131.140625 456.890625 129.433594 456.28125 129.1875 456.828125 C 128.945312 457.378906 128.640625 458.292969 128.277344 458.355469 C 127.910156 458.414062 126.082031 458.84375 125.105469 458.476562 C 124.136719 458.113281 122.609375 457.867188 122.675781 458.414062 C 122.734375 458.964844 123.160156 459.332031 122.125 459.453125 C 121.089844 459.574219 119.8125 460.667969 119.445312 459.332031 C 119.082031 457.988281 118.347656 455.613281 117.679688 455.796875 C 117.007812 455.980469 116.886719 456.828125 116.15625 455.796875 C 115.421875 454.761719 115.421875 452.632812 114.203125 452.8125 C 112.992188 452.992188 112.746094 453.910156 111.832031 453.359375 C 110.917969 452.8125 110.429688 452.566406 110.007812 452.753906 C 109.578125 452.933594 107.8125 451.714844 107.871094 453.054688 C 107.933594 454.394531 107.992188 455.492188 108.789062 456.585938 C 109.578125 457.683594 110.007812 462.007812 109.210938 462.738281 C 108.421875 463.46875 107.445312 463.957031 105.984375 463.894531 C 104.519531 463.835938 102.632812 464.625 101.78125 464.136719 C 100.925781 463.652344 101.539062 462.375 99.957031 462.375 C 98.371094 462.375 97.699219 462.316406 98.007812 463.289062 C 98.308594 464.261719 98.429688 464.503906 97.460938 464.871094 C 96.484375 465.234375 95.632812 465.722656 95.203125 466.519531 C 94.777344 467.308594 90.632812 469.015625 89.296875 470.65625 C 87.957031 472.300781 87.59375 471.324219 86.796875 471.265625 C 86.007812 471.203125 82.65625 470.414062 81.804688 470.167969 C 80.949219 469.925781 79.730469 471.875 80.585938 472.609375 C 81.4375 473.339844 83.753906 474.617188 84.179688 475.773438 C 84.609375 476.933594 84.421875 478.453125 83.8125 481.007812 C 83.207031 483.570312 83.144531 485.820312 83.449219 487.835938 C 83.753906 489.84375 83.511719 489.660156 83.082031 490.695312 C 82.65625 491.730469 82.476562 492.644531 83.511719 493.496094 C 84.542969 494.347656 84.609375 493.496094 85.460938 495.691406 C 86.316406 497.882812 88.203125 499.894531 89.175781 501.046875 C 90.152344 502.203125 90.273438 503.242188 90.152344 505.617188 C 90.023438 507.992188 90.574219 510.796875 92.40625 513.230469 C 94.226562 515.667969 95.445312 515.609375 96.484375 515.609375 C 97.519531 515.609375 98.308594 514.570312 98.308594 514.570312 C 98.308594 514.570312 99.164062 514.511719 99.164062 514.933594 C 99.164062 515.363281 99.039062 515.726562 99.46875 515.179688 C 99.894531 514.632812 100.871094 515.726562 100.8125 514.632812 C 100.746094 513.535156 101.292969 511.21875 101.78125 510.121094 C 102.269531 509.027344 103.488281 507.992188 104.21875 508.902344 C 104.949219 509.820312 106.777344 510.488281 107.8125 510.308594 C 108.847656 510.121094 110.738281 510 111.40625 510.429688 C 112.074219 510.855469 113.84375 511.160156 114.8125 511.769531 C 115.789062 512.375 117.128906 512.496094 117.4375 513.535156 C 117.738281 514.570312 118.40625 517.617188 120.234375 519.015625 C 122.066406 520.414062 123.160156 521.023438 123.160156 521.023438 C 123.160156 521.023438 124.074219 521.210938 124.074219 521.023438 C 124.074219 520.84375 124.5625 520.703125 125.472656 521.109375 C 126.390625 521.511719 127.363281 521.433594 127.488281 521.109375 C 127.609375 520.78125 127.667969 520.171875 128.15625 520.78125 C 128.640625 521.390625 128.765625 521.511719 129.066406 521.023438 C 129.375 520.539062 128.640625 519.929688 129.375 520.539062 C 130.105469 521.148438 130.714844 521.511719 130.527344 520.113281 C 130.347656 518.714844 130.105469 516.277344 130.226562 514.570312 C 130.347656 512.863281 131.503906 512.496094 131.625 513.292969 C 131.75 514.082031 132.660156 513.902344 132.722656 514.324219 C 132.78125 514.753906 133.027344 515.789062 133.578125 515.847656 C 134.121094 515.910156 140.820312 516.089844 140.820312 515.609375 C 140.820312 515.121094 140.886719 513.839844 141.738281 513.714844 C 142.585938 513.59375 144.234375 514.082031 144.660156 515.609375 C 145.089844 517.128906 145.632812 521.941406 147.097656 523.035156 C 148.558594 524.132812 149.472656 524.132812 149.472656 523.035156 C 149.472656 521.941406 150.140625 520.902344 150.324219 521.820312 C 150.503906 522.730469 149.414062 522.976562 150.992188 523.398438 C 152.578125 523.828125 153.429688 523.339844 153.734375 523.859375 C 154.039062 524.375 155.503906 525.167969 156.355469 524.863281 C 157.207031 524.558594 156.71875 523.15625 157.570312 523.707031 C 158.425781 524.253906 158.730469 523.523438 161.105469 523.949219 C 163.480469 524.375 165.609375 524.375 164.390625 523.339844 C 163.171875 522.308594 162.933594 519.503906 163.480469 519.503906 C 164.027344 519.503906 168.109375 518.894531 168.109375 518.894531 L 168.472656 516.886719 C 168.472656 516.886719 170.667969 516.519531 171.035156 517.25 C 171.398438 517.984375 173.773438 525.777344 176.757812 526.691406 C 179.742188 527.601562 179.984375 526.933594 180.71875 526.691406 C 181.449219 526.445312 181.8125 526.019531 183.03125 526.261719 C 184.25 526.503906 184.25 527.238281 184.796875 526.570312 C 185.34375 525.894531 184.1875 525.105469 186.074219 525.414062 C 187.960938 525.714844 188.269531 525.777344 188.328125 525.292969 C 188.390625 524.804688 188.390625 523.886719 188.085938 522.609375 C 187.78125 521.332031 187.78125 520.171875 187.78125 520.171875 C 187.78125 520.171875 188.390625 519.992188 189.855469 520.113281 C 191.316406 520.234375 191.191406 520.480469 191.800781 519.992188 C 192.410156 519.503906 191.800781 518.894531 192.410156 519.503906 C 193.019531 520.113281 193.019531 520.660156 194.117188 520.660156 C 195.210938 520.660156 195.824219 520.902344 196.003906 520.902344 C 196.1875 520.902344 196.734375 520.601562 196.976562 520.414062 C 197.222656 520.234375 198.253906 519.5625 198.863281 520.414062 C 199.472656 521.269531 200.082031 524.925781 201.847656 525.894531 C 203.617188 526.871094 205.140625 527.746094 206.359375 527.152344 C 207.574219 526.570312 207.574219 526.203125 208.792969 526.628906 C 210.011719 527.058594 210.253906 527.945312 211.230469 527.34375 C 212.207031 526.75 212.996094 526.265625 213.300781 526.203125 C 213.605469 526.140625 214.09375 526.382812 213.910156 525.292969 C 213.726562 524.195312 213.117188 521.390625 213.300781 520.84375 C 213.484375 520.292969 214.335938 520.113281 214.945312 520.292969 C 215.554688 520.480469 215.675781 521.878906 216.46875 521.878906 C 217.261719 521.878906 217.628906 523.21875 217.808594 523.707031 C 217.992188 524.195312 218.296875 525.59375 220.183594 524.984375 C 222.070312 524.375 224.691406 523.828125 224.691406 523.828125 L 224.871094 522 C 224.871094 522 224.871094 521.453125 225.726562 521.390625 C 226.578125 521.332031 228.34375 521.089844 229.015625 522.609375 C 229.683594 524.132812 230.351562 526.871094 231.9375 528.089844 C 233.523438 529.308594 234.496094 529.1875 235.957031 529.007812 C 237.417969 528.820312 237.96875 527.300781 239.125 527.421875 C 240.28125 527.542969 240.042969 527.96875 240.832031 527.847656 C 241.621094 527.726562 241.683594 528.152344 241.988281 527.480469 C 242.292969 526.8125 242.539062 526.324219 242.539062 526.324219 C 242.539062 526.324219 243.207031 526.382812 243.996094 525.652344 C 244.789062 524.925781 244.605469 524.375 245.457031 524.375 C 246.3125 524.375 246.433594 526.382812 247.164062 526.8125 C 247.898438 527.238281 249.480469 527.238281 250.574219 526.8125 C 251.671875 526.382812 252.464844 525.894531 253.320312 525.960938 C 254.167969 526.023438 257.09375 525.472656 257.394531 525.960938 C 257.703125 526.445312 259.164062 530.773438 260.257812 531.257812 C 261.359375 531.746094 264.09375 532.355469 264.824219 532.292969 C 265.558594 532.234375 267.019531 531.015625 267.816406 531.382812 C 268.605469 531.746094 269.335938 531.683594 269.882812 531.5625 C 270.433594 531.441406 271.832031 531.015625 271.648438 529.855469 C 271.46875 528.699219 271.527344 527.847656 271.46875 527.542969 C 271.402344 527.238281 272.136719 526.324219 273.171875 526.75 C 274.207031 527.179688 279.078125 526.933594 280.417969 528.03125 C 281.761719 529.128906 282.613281 530.40625 283.769531 531.015625 C 284.929688 531.625 285.964844 531.804688 286.449219 531.625 C 286.9375 531.441406 288.460938 531.746094 289.070312 532.902344 C 289.679688 534.058594 292.054688 534.851562 295.222656 534.976562 C 298.386719 535.097656 298.933594 535.519531 300.03125 534.425781 C 301.128906 533.328125 301.003906 533.207031 301.492188 533.390625 C 301.980469 533.570312 301.917969 533.390625 301.613281 532.480469 C 301.3125 531.5625 300.945312 529.25 301.3125 528.886719 C 301.679688 528.519531 302.589844 527.789062 303.929688 528.457031 C 305.273438 529.128906 305.574219 530.527344 306.972656 530.164062 C 308.378906 529.796875 309.898438 528.761719 312.09375 528.820312 C 314.28125 528.886719 316.476562 527.910156 317.328125 529.429688 C 318.183594 530.953125 318.121094 531.746094 319.035156 531.683594 C 319.949219 531.625 321.46875 529.917969 322.199219 531.5625 C 322.933594 533.207031 325.308594 537.960938 328.046875 538.140625 C 330.792969 538.324219 331.949219 539.113281 332.433594 538.140625 C 332.921875 537.164062 332.617188 536.617188 333.527344 536.984375 C 334.445312 537.351562 334.503906 537.714844 335.542969 537.042969 C 336.574219 536.375 337.609375 536.4375 337.429688 535.277344 C 337.246094 534.121094 335.90625 532.171875 335.601562 531.316406 C 335.296875 530.464844 334.867188 529.367188 334.867188 529.367188 C 334.867188 529.367188 337.183594 528.277344 337.003906 529.128906 C 336.820312 529.976562 336.753906 530.222656 339.070312 530.222656 C 341.386719 530.222656 343.460938 529.738281 343.519531 529.308594 C 343.578125 528.886719 345.46875 528.210938 346.136719 528.820312 C 346.808594 529.429688 348.027344 531.257812 350.097656 532.292969 C 352.167969 533.328125 352.65625 532.660156 354.175781 532.480469 C 355.703125 532.292969 356.671875 531.136719 358.320312 531.316406 C 359.964844 531.503906 362.09375 531.683594 362.09375 530.953125 C 362.09375 530.222656 361.484375 525.960938 361.484375 525.960938 C 361.484375 525.960938 361.792969 527.421875 362.886719 527.480469 C 363.980469 527.542969 365.386719 527.421875 366.542969 527.238281 C 367.699219 527.058594 369.890625 526.570312 369.890625 526.570312 C 369.890625 526.570312 369.589844 524.617188 370.316406 525.292969 C 371.046875 525.960938 370.5 526.871094 371.59375 526.871094 C 372.691406 526.871094 373.054688 527.179688 373.363281 527.847656 C 373.664062 528.519531 376.714844 532.964844 377.503906 532.414062 C 378.296875 531.871094 378.722656 531.257812 379.390625 531.804688 C 380.0625 532.355469 380.851562 531.992188 381.828125 531.382812 C 382.804688 530.773438 383.289062 530.34375 384.324219 530.648438 C 385.363281 530.953125 385.664062 531.382812 386.273438 530.585938 C 386.882812 529.796875 386.273438 529.976562 387.796875 529.554688 C 389.324219 529.128906 390.964844 529.308594 390.535156 528.886719 C 390.113281 528.457031 389.015625 526.8125 390.234375 527.238281 C 391.453125 527.667969 392.121094 527.300781 392.488281 526.871094 C 392.851562 526.445312 394.925781 527.421875 394.25 525.652344 C 393.582031 523.886719 392.242188 522.367188 392.792969 522.0625 C 393.339844 521.757812 394.007812 521.757812 394.007812 521.148438 C 394.007812 520.539062 392.972656 520.113281 394.617188 520.113281 C 396.261719 520.113281 396.691406 519.804688 396.992188 520.78125 C 397.300781 521.757812 398.332031 522.367188 400.160156 524.007812 C 401.984375 525.652344 402.84375 526.8125 404 526.382812 C 405.15625 525.960938 405.460938 525.960938 406.375 526.203125 C 407.285156 526.445312 408.203125 526.445312 408.261719 525.652344 C 408.324219 524.863281 408.261719 524.4375 409.234375 524.4375 C 410.210938 524.4375 411.671875 523.765625 411.25 523.15625 C 410.820312 522.550781 409.113281 519.804688 409.722656 518.714844 C 410.332031 517.617188 411.1875 515.421875 412.523438 515.910156 C 413.867188 516.398438 413.984375 516.089844 415.265625 516.398438 C 416.542969 516.699219 418.371094 519.015625 419.59375 519.625 C 420.804688 520.234375 423.121094 519.746094 422.878906 519.320312 C 422.632812 518.894531 421.902344 517.128906 422.699219 517.066406 C 423.488281 517.007812 426.53125 515.96875 427.261719 516.210938 C 427.996094 516.457031 430.675781 515.96875 430.066406 515.179688 C 429.457031 514.390625 427.753906 511.707031 427.753906 511.039062 C 427.753906 510.367188 428.910156 509.636719 429.699219 509.636719 C 430.496094 509.636719 432.195312 512.136719 433.230469 513.171875 C 434.269531 514.203125 438.046875 516.03125 438.59375 516.277344 C 439.144531 516.519531 442.1875 517.917969 440.78125 515.242188 C 439.386719 512.5625 438.285156 511.707031 437.984375 510.796875 C 437.679688 509.878906 437.738281 509.636719 439.445312 510.730469 C 441.148438 511.828125 444.4375 513.230469 445.601562 513.230469 C 446.75 513.230469 448.640625 513.046875 449.554688 513.105469 C 450.472656 513.171875 452.050781 512.804688 451.441406 512.074219 C 450.835938 511.339844 450.285156 509.390625 451.074219 509.332031 C 451.871094 509.269531 454.546875 509.699219 453.511719 507.691406 C 452.480469 505.675781 450.835938 504.097656 451.75 503.851562 C 452.664062 503.609375 455.707031 503.488281 455.769531 503.058594 C 455.828125 502.632812 455.644531 500.316406 456.011719 500.316406 C 456.375 500.316406 461.796875 500.925781 461.796875 500.925781 C 461.796875 500.925781 464.660156 504.277344 466.667969 505.25 C 468.683594 506.226562 470.871094 506.226562 470.570312 505.496094 C 470.261719 504.765625 468.253906 503.546875 469.105469 503.058594 C 469.960938 502.570312 469.292969 502.324219 470.324219 502.449219 C 471.359375 502.570312 471.417969 502.570312 472.457031 502.082031 C 473.488281 501.59375 473.371094 501.292969 474.164062 501.535156 C 474.953125 501.78125 476.292969 501.355469 476.292969 501.355469 C 476.292969 501.355469 486.28125 501.046875 488.230469 500.988281 C 490.179688 500.925781 492.128906 501.355469 492.921875 501.476562 C 493.710938 501.59375 494.015625 501.714844 496.027344 501.234375 C 498.035156 500.746094 499.984375 500.195312 500.472656 500.257812 C 500.960938 500.316406 510.765625 499.585938 511.011719 499.585938 C 511.253906 499.585938 511.921875 500.074219 510.402344 500.683594 C 508.878906 501.292969 496.636719 503.421875 491.15625 504.640625 C 485.675781 505.859375 481.710938 507.082031 481.53125 508.113281 C 481.351562 509.148438 480.4375 509.699219 484.757812 508.664062 C 489.082031 507.625 495.171875 505.984375 495.417969 505.917969 C 495.660156 505.859375 497.246094 505.433594 498.34375 506.042969 C 499.433594 506.652344 500.050781 506.835938 502.726562 506.347656 C 505.40625 505.859375 521.546875 503.789062 524.898438 503.851562 C 528.246094 503.910156 530.988281 502.511719 533.359375 502.632812 C 535.734375 502.753906 539.578125 502.390625 540.671875 502.082031 C 541.765625 501.78125 542.5 501.65625 542.5 501.65625 C 542.5 501.65625 547.066406 505.128906 548.953125 505.128906 L 552.367188 510.976562 C 552.367188 510.976562 552.792969 511.886719 554.195312 511.648438 L 555.839844 517.128906 L 551.449219 516.945312 C 551.449219 516.945312 549.871094 515.542969 548.101562 516.152344 C 546.335938 516.765625 541.28125 519.015625 541.28125 519.015625 C 541.28125 519.015625 540.367188 520.539062 541.28125 520.964844 C 542.191406 521.390625 542.984375 521.820312 543.167969 522.1875 C 543.351562 522.550781 543.71875 523.21875 545.238281 523.644531 C 546.761719 524.074219 556.386719 526.019531 558.757812 525.894531 L 559.433594 527.359375 L 558.824219 527.789062 L 559.1875 529.007812 L 559.980469 529.1875 L 560.34375 530.164062 L 559.734375 531.316406 C 559.734375 531.316406 543.59375 534.242188 535.675781 536.253906 C 527.757812 538.261719 520.636719 539.722656 513.507812 539.238281 C 506.382812 538.75 488.535156 535.765625 486.40625 536.070312 C 484.277344 536.375 480.984375 537.226562 478.484375 536.617188 C 475.988281 536.007812 476.113281 535.585938 474.464844 536.195312 C 472.820312 536.796875 468.066406 538.203125 466.367188 538.261719 C 464.660156 538.324219 464.171875 540.03125 465.328125 540.636719 C 466.488281 541.246094 471.96875 543.316406 473.617188 543.863281 C 475.253906 544.414062 478.121094 544.960938 480.863281 545.328125 C 483.601562 545.691406 485.429688 546.121094 487.441406 546.851562 C 489.449219 547.578125 513.320312 557.8125 547.675781 557.691406 C 582.027344 557.570312 630.144531 551.480469 642.199219 546 C 654.257812 540.515625 661.9375 536.007812 664.617188 534.179688 C 664.617188 534.179688 692.265625 533.816406 711.269531 523.464844 C 730.269531 513.105469 745.832031 496.507812 749.757812 490.484375 C 753.691406 484.449219 759.808594 479.335938 760.816406 477.875 C 761.820312 476.410156 762.738281 473.21875 758.4375 476.410156 Z M 463.136719 277.21875 L 462.34375 278.683594 L 461.1875 277.953125 Z M 413.617188 280.75 C 414.84375 281.117188 417.152344 283.496094 417.152344 283.496094 C 414.046875 283.921875 413.617188 280.75 413.617188 280.75 Z M 59.210938 386.484375 C 57.992188 386.667969 58.054688 385.023438 58.054688 385.023438 L 58.054688 378.933594 C 58.78125 379.296875 58.660156 379.785156 58.542969 380.152344 C 58.414062 380.515625 60.851562 383.5 60.851562 383.5 C 60.851562 383.5 60.429688 386.304688 59.210938 386.484375 Z M 105.738281 368.09375 L 92.40625 367.605469 C 91.308594 366.386719 89.542969 359.988281 88.933594 357.3125 C 88.324219 354.628906 88.933594 355.238281 88.933594 355.238281 C 92.464844 356.703125 105.738281 367.90625 105.738281 367.90625 Z M 129.1875 366.9375 C 128.582031 366.996094 121.640625 367.304688 121.640625 367.304688 C 117.863281 363.402344 101.84375 354.019531 101.84375 354.019531 C 101.84375 354.019531 113.535156 354.386719 115.421875 354.386719 C 117.3125 354.386719 118.53125 354.265625 119.566406 353.535156 C 120.601562 352.800781 126.511719 351.28125 127.972656 351.402344 C 129.433594 351.523438 130.59375 361.574219 130.835938 363.34375 C 131.082031 365.109375 129.796875 366.875 129.1875 366.9375 Z M 140.089844 357.980469 C 138.570312 354.996094 139.601562 355.546875 139.601562 355.546875 C 145.148438 357.003906 158.976562 366.445312 158.976562 366.445312 C 158.851562 372.175781 159.765625 376.3125 159.765625 376.3125 C 145.148438 374.0625 141.617188 360.964844 140.089844 357.980469 Z M 128.519531 471.117188 L 127.695312 469.152344 C 127.695312 469.152344 129.617188 467.367188 131.261719 467.1875 C 131.261719 467.1875 128.886719 469.378906 128.519531 471.117188 Z M 207.542969 475.773438 C 206.996094 476.597656 206.539062 478.148438 206.539062 478.148438 L 204.4375 479.515625 L 202.523438 479.515625 C 202.523438 479.515625 199.78125 482.167969 198.683594 482.441406 C 197.585938 482.714844 195.394531 485.546875 194.847656 486.007812 C 194.296875 486.460938 187.722656 486.460938 187.265625 486.550781 C 178.722656 488.257812 173.746094 491.214844 173.746094 491.214844 C 173.746094 491.214844 173.746094 491.214844 173.472656 490.664062 C 173.191406 490.117188 171.457031 489.929688 171.457031 489.929688 L 159.949219 490.664062 C 159.949219 490.664062 163.601562 483.632812 159.859375 474.675781 C 156.109375 465.722656 147.800781 464.261719 147.800781 464.261719 L 147.800781 463.804688 C 147.800781 463.804688 148.347656 463.074219 149.808594 462.710938 C 151.265625 462.34375 150.628906 463.714844 151.453125 464.261719 C 152.269531 464.8125 153.007812 463.988281 154.832031 463.894531 C 156.660156 463.804688 155.746094 462.34375 156.386719 461.613281 C 157.023438 460.882812 156.839844 462.34375 158.027344 462.4375 C 159.21875 462.523438 160.589844 461.703125 160.675781 461.339844 C 160.769531 460.972656 160.953125 460.515625 162.046875 460.515625 C 163.144531 460.515625 163.78125 461.425781 165.066406 461.976562 C 166.34375 462.523438 168.171875 461.976562 168.257812 461.246094 C 168.351562 460.515625 169.542969 459.511719 169.542969 459.511719 C 169.542969 459.511719 170.359375 459.875 171.277344 459.875 C 172.1875 459.875 173.835938 459.691406 174.015625 459.238281 C 174.199219 458.78125 175.023438 457.867188 175.753906 457.867188 C 176.484375 457.867188 177.03125 458.046875 177.394531 458.964844 C 177.761719 459.875 179.863281 459.605469 181.140625 459.238281 C 182.421875 458.871094 182.695312 456.585938 182.695312 456.585938 C 182.695312 456.585938 183.792969 457.230469 184.335938 457.136719 C 184.878906 457.042969 186.535156 456.679688 186.714844 455.945312 C 186.898438 455.214844 188.175781 455.582031 189.179688 455.582031 C 190.1875 455.582031 190.457031 455.765625 191.191406 456.679688 C 191.925781 457.59375 193.113281 456.949219 194.660156 456.585938 C 196.21875 456.21875 195.121094 454.667969 195.121094 454.667969 C 195.121094 454.667969 196.21875 453.84375 196.855469 454.394531 C 197.496094 454.941406 199.144531 454.394531 200.054688 454.304688 C 200.964844 454.210938 203.617188 453.9375 204.625 453.570312 C 205.628906 453.207031 205.71875 452.660156 205.8125 458.597656 C 205.902344 464.539062 208.277344 469.652344 208.640625 471.117188 C 209.007812 472.574219 208.09375 474.953125 207.542969 475.773438 Z M 239.886719 469.652344 L 238.609375 471.117188 C 238.972656 468.28125 239.886719 469.652344 239.886719 469.652344 Z M 281.636719 499.613281 C 281.730469 501.535156 268.847656 499.160156 268.847656 499.160156 C 268.847656 499.160156 264.371094 491.851562 258.160156 491.300781 C 251.949219 490.753906 245.1875 496.328125 244.726562 499.253906 L 235.59375 498.523438 C 235.59375 498.523438 236.964844 493.769531 233.402344 487.648438 C 233.402344 487.648438 238.972656 488.289062 240.617188 484.722656 C 242.261719 481.164062 241.074219 476.410156 241.074219 476.410156 C 241.074219 476.410156 275.972656 493.589844 282.097656 495.964844 C 282.097656 495.964844 281.546875 497.699219 281.636719 499.613281 Z M 283.554688 492.585938 C 271.402344 490.023438 239.433594 472.394531 239.433594 472.394531 L 242.171875 471.117188 L 288.765625 487.648438 C 285.109375 488.652344 283.554688 492.585938 283.554688 492.585938 Z M 336.910156 480.25 L 335.996094 479.0625 C 335.996094 479.0625 328.964844 477.691406 327.960938 477.507812 C 326.953125 477.328125 324.761719 477.507812 322.933594 478.425781 C 321.105469 479.335938 321.195312 486.09375 321.195312 486.09375 L 315.988281 487.648438 L 308.042969 484.910156 C 308.042969 484.910156 307.496094 482.078125 306.714844 481.34375 C 305.941406 480.613281 300.09375 478.332031 296.988281 475.863281 C 293.882812 473.398438 293.242188 472.574219 292.054688 472.300781 C 290.863281 472.027344 278.992188 462.523438 278.992188 462.523438 C 279.722656 461.339844 278.992188 457.136719 278.992188 457.136719 L 334.445312 472.300781 L 333.167969 475.40625 L 342.9375 477.78125 C 342.9375 477.78125 341.480469 479.335938 340.839844 479.515625 C 340.199219 479.703125 336.910156 480.25 336.910156 480.25 Z M 368.523438 485.183594 C 366.691406 485.730469 364.5 486.550781 363.953125 487.375 C 363.40625 488.195312 363.769531 489.476562 361.851562 490.296875 C 359.933594 491.121094 359.476562 491.277344 358.378906 491.609375 C 357.28125 491.945312 353.628906 491.851562 352.347656 492.3125 C 351.070312 492.765625 350.707031 493.222656 349.242188 493.316406 C 347.78125 493.402344 345.316406 493.402344 345.042969 493.316406 C 344.765625 493.222656 336.578125 493.652344 347.140625 489.75 L 365.6875 482.902344 L 373.089844 484.269531 C 373.089844 484.269531 370.34375 484.636719 368.523438 485.183594 Z M 386.246094 499.433594 L 386.792969 502.90625 C 386.792969 502.90625 382.589844 504.371094 381.21875 504.914062 C 379.847656 505.464844 379.753906 504.277344 379.574219 501.808594 C 379.390625 499.34375 377.472656 495.503906 377.472656 495.503906 C 377.472656 495.503906 379.023438 494.40625 380.488281 493.222656 C 381.949219 492.03125 379.753906 489.84375 379.753906 489.84375 C 382.589844 490.117188 384.417969 486.09375 384.417969 486.09375 C 384.417969 486.09375 387.34375 486.644531 388.070312 486.644531 C 388.800781 486.644531 389.074219 487.742188 389.074219 487.742188 C 385.878906 491.394531 386.246094 499.433594 386.246094 499.433594 Z M 400.863281 491.417969 C 399.402344 491.851562 390.261719 494.773438 389.71875 494.867188 C 389.167969 494.957031 389.71875 494.5 389.71875 494.5 C 389.71875 494.5 391.179688 489.476562 392.457031 488.5625 C 393.734375 487.648438 402.6875 489.84375 402.6875 489.84375 C 402.6875 489.84375 402.320312 490.988281 400.863281 491.417969 Z M 437.984375 287.269531 L 437.738281 287.269531 L 437.738281 288.058594 L 435.242188 288.609375 L 435.242188 286.660156 L 437.984375 286.660156 Z M 439.871094 285.382812 C 439.683594 285.5625 434.757812 285.382812 434.757812 285.382812 C 435.488281 284.894531 436.097656 282.886719 436.28125 282.945312 C 436.457031 283.003906 437.738281 283.921875 438.652344 284.40625 C 439.570312 284.894531 440.050781 285.199219 439.871094 285.382812 Z M 442.007812 289.402344 L 441.578125 289.402344 L 441.148438 287.636719 L 441.640625 286.902344 L 442.007812 286.902344 Z M 442.980469 276.367188 L 442.488281 275.269531 L 440.359375 279.050781 L 441.882812 278.863281 L 441.519531 280.140625 C 441.519531 280.140625 439.386719 279.171875 438.59375 278.683594 C 437.796875 278.195312 437.007812 278.441406 436.824219 278.253906 C 436.644531 278.074219 435.300781 277.21875 435.300781 276.667969 C 435.300781 276.125 436.398438 274.847656 435 274.171875 C 433.59375 273.503906 431.957031 271.253906 431.589844 270.945312 C 431.226562 270.644531 430.917969 270.519531 430.917969 270.519531 C 430.917969 270.519531 432.257812 268.878906 431.714844 267.71875 C 431.164062 266.5625 429.390625 267.171875 429.09375 268.082031 C 428.789062 269 429.09375 270.035156 429.09375 270.035156 C 429.09375 270.035156 427.691406 269.300781 425.136719 268.9375 C 425.136719 268.9375 424.839844 268.566406 424.476562 268.082031 C 423.011719 265.976562 419.894531 261.40625 418.605469 258.976562 C 417.835938 257.507812 417.828125 256.609375 418.046875 256.285156 C 418.378906 255.816406 419.785156 255.394531 422.667969 255.765625 C 428.976562 256.585938 436.6875 262.835938 439.21875 266.78125 C 441.246094 269.9375 443.828125 273.007812 445.015625 274.367188 C 444.121094 275.171875 442.980469 276.367188 442.980469 276.367188 Z M 547.765625 364.5 C 544.207031 364.039062 505.738281 356.550781 505.738281 356.550781 C 505.738281 356.550781 513.6875 353.535156 510.765625 349.789062 C 507.84375 346.042969 490.667969 330.878906 488.019531 326.949219 C 485.367188 323.019531 485.28125 320.097656 493.042969 322.933594 C 500.808594 325.761719 530.683594 337.515625 533.148438 339.171875 C 535.617188 340.835938 549.40625 354.265625 552.425781 358.925781 C 555.445312 363.582031 551.328125 364.957031 547.765625 364.5 Z M 568.140625 503.546875 C 569.785156 503.546875 572.460938 502.511719 572.460938 502.511719 L 572.460938 504.097656 L 570.882812 505.617188 L 568.996094 505.617188 L 568.140625 504.582031 Z M 627.433594 512.316406 L 627.433594 512.863281 C 627.433594 512.863281 612.90625 514.234375 601.308594 517.066406 C 589.703125 519.898438 580.199219 519.53125 576.914062 519.074219 C 573.621094 518.621094 567.042969 517.890625 567.042969 517.890625 L 565.121094 511.765625 C 565.121094 511.765625 566.496094 511.339844 567.898438 511.28125 C 569.296875 511.21875 568.996094 510.121094 568.996094 510.121094 L 570.757812 510.0625 C 570.757812 510.0625 570.695312 510.429688 570.757812 510.855469 C 570.824219 511.28125 571.492188 511.464844 572.222656 511.527344 C 572.953125 511.585938 573.253906 510.1875 573.800781 510.308594 C 574.351562 510.429688 574.65625 509.699219 574.65625 509.699219 C 576.238281 509.757812 576.785156 509.089844 576.664062 508.242188 C 576.546875 507.390625 576.363281 506.164062 576.363281 506.164062 C 578.742188 505.917969 579.648438 501.046875 579.648438 501.046875 C 585.558594 500.988281 610.53125 497.089844 610.53125 497.089844 L 611.808594 497.089844 C 611.808594 497.089844 612.417969 498.246094 612.964844 498.488281 C 613.515625 498.734375 614.671875 497.089844 614.671875 497.089844 L 616.074219 497.089844 L 616.5 498.1875 L 624.175781 498.1875 C 624.175781 498.1875 624.84375 500.625 625.144531 501.292969 C 625.453125 501.960938 624.84375 502.203125 624.054688 502.324219 C 623.261719 502.449219 623.566406 503.421875 623.808594 503.609375 C 624.054688 503.789062 625.757812 504.277344 625.757812 504.277344 L 627.101562 509.210938 L 626.734375 509.941406 L 626.972656 511.3125 L 627.433594 511.3125 Z M 663.519531 510.761719 C 663.519531 510.761719 668.820312 504.550781 671.007812 493.863281 C 673.203125 483.171875 674.484375 475.589844 677.132812 475.773438 C 679.78125 475.957031 682.246094 477.601562 686.082031 478.699219 C 689.921875 479.792969 694.671875 479.152344 697.050781 478.699219 C 699.417969 478.238281 700.882812 478.511719 702.4375 479.792969 C 703.988281 481.070312 705.730469 484.359375 702.4375 487.105469 C 699.144531 489.84375 696.320312 490.664062 696.226562 493.265625 C 696.132812 495.871094 695.585938 500.347656 694.488281 501.808594 C 693.394531 503.273438 684.167969 510.214844 681.699219 511.765625 C 681.699219 511.765625 668.265625 511.039062 663.519531 510.761719 Z M 750.769531 475.3125 C 749.671875 476.046875 748.121094 477.414062 747.933594 479.335938 C 747.753906 481.253906 748.300781 485.457031 746.566406 486.644531 C 744.828125 487.832031 736.238281 495.871094 733.589844 498.066406 C 730.941406 500.257812 713.414062 509.851562 703.078125 510.671875 C 703.078125 510.671875 720.710938 495.964844 723.539062 487.558594 C 726.375 479.152344 726.828125 469.46875 728.203125 465.628906 C 729.570312 461.792969 732.585938 464.171875 734.234375 464.8125 C 735.871094 465.449219 740.441406 466.726562 746.472656 466.179688 C 752.503906 465.628906 752.777344 465.816406 754.691406 469.195312 C 756.613281 472.574219 751.863281 474.585938 750.769531 475.3125 " fill-opacity="1" fill-rule="nonzero"/></g></svg>